<svg width="534" height="156" viewBox="0 0 534 156" fill="none" xmlns="http://www.w3.org/2000/svg">
<path d="M49.5911 7.81871L30.7093 13.5949L69.2437 138.882L92.6299 130.027L49.5911 7.81871Z" fill="#04588C"/>
<path fill-rule="evenodd" clip-rule="evenodd" d="M35.3134 10.3903L13.3083 17.4294L58.9425 146.526C59.4966 146.213 60.037 145.906 60.5648 145.606C69.5172 140.518 74.857 137.483 82.3773 139.338L84.5517 138.306C69.0008 116.599 53.8605 79.232 53.8605 79.232C53.8605 79.232 38.4809 40.3203 35.3134 10.3903Z" fill="#F2F2F2"/>
<path d="M112.581 6.15493L132.058 12.6418L84.7174 138.715L71.6883 106.068L112.581 6.15493Z" fill="#04588C"/>
<path fill-rule="evenodd" clip-rule="evenodd" d="M127.267 9.41606L151.362 15.8579L97.6975 146.577C97.0936 146.279 96.5048 145.988 95.9297 145.704C86.1736 140.879 80.3544 138.001 72.0766 139.911L69.7042 138.937C87.4095 116.758 105.06 78.901 105.06 78.901C105.06 78.901 123.013 39.4899 127.267 9.41606Z" fill="#F2F2F2"/>
<path d="M182.672 136.748V51.4228L197.384 50.2113V60.2496H198.249C200.672 54.0189 205.691 48.4805 215.21 48.4805C224.383 48.4805 230.787 53.3266 230.787 63.7111V73.4032L215.21 74.9609L217.173 65.788C217.173 61.115 215 59 210.673 59C205.135 59 199.288 66.8264 199.288 73.7494V136.748H182.672Z" fill="#04588C"/>
<path d="M264.723 153.883C252.089 153.883 245.512 148.171 245.512 129.306V78.9416H234.435V65.6149H246.031V31L261.781 41.9037V65.6149H279.261V78.9416H261.781V127.576C261.781 136.229 264.55 138.306 270.262 138.306C273.723 138.306 277.877 136.922 280.473 135.364V151.114C275.973 152.844 270.954 153.883 264.723 153.883Z" fill="#04588C"/>
<path d="M304.891 138.306C295.372 138.306 287.93 133.46 287.93 118.403V51.0766L304.199 50.0382C300.21 73.9145 299.134 87.6016 299.173 112.518C299.173 121.345 307.661 126.883 311.814 126.883C318.224 127.527 325.173 106 325.173 106C325.173 106 325.942 92.7859 324.173 78.7685C322.404 64.7512 322.026 51.0766 322.026 51.0766L338.295 50.0382V136.575H322.026V128.441H321.333C317.526 134.672 313.891 138.306 304.891 138.306Z" fill="#04588C"/>
<path d="M382.815 75.3071C382.815 65.4418 380.565 61.8072 374.508 61.8072C368.277 61.8072 365.335 65.0957 365.335 73.7494V78.7685L350.97 77.557V73.4032C350.97 52.2882 362.566 48.3074 375.373 48.3074C391.988 48.3074 399.084 55.5766 399.084 74.4417V136.575H382.815V128.96H382.296C379.527 135.191 374.854 138.306 366.893 138.306C355.989 138.306 348.027 132.249 348.027 112.518C348.027 91.7491 356.681 85.5184 368.969 85.5184C375.027 85.5184 379.527 87.5953 382.815 90.7107V75.3071ZM355.673 110.095C355.673 122.037 367.585 127.402 373.123 127.402C379.008 127.402 382.815 123.595 382.815 116.326V98.499C380.912 95.5568 377.969 93.6529 373.296 93.6529C366.2 93.6529 355.673 98.6721 355.673 110.095Z" fill="#04588C"/>
<path d="M405.251 152.152L404.673 35L422.385 31V136.748H444.019L442.289 152.152H405.251Z" fill="#F2F2F2"/>
<path d="M511.826 155.094C502.307 155.094 498.846 150.768 496.25 144.71H495.557V153.364H479.289V32.2115L495.557 31V74.4417H496.25C498.846 69.4225 502.307 65.0957 511.826 65.0957C524.634 65.0957 533.288 75.9994 533.288 110.095C533.288 144.191 524.634 155.094 511.826 155.094ZM495.557 124.979C495.557 134.672 499.365 141.941 504.73 141.941C511.307 141.941 522.173 133.114 522.173 110.095C522.173 87.0761 511.307 78.2493 504.73 78.2493C499.365 78.2493 495.557 83.7877 495.557 94.1722V124.979Z" fill="#F2F2F2"/>
<path d="M148 44.4998L166.865 43.6344L166.692 60.2496H148.173L148 44.4998Z" fill="#04588C"/>
<path d="M148.173 144.71V66.8264L164.442 65.788V144.71H148.173Z" fill="#04588C"/>
<path d="M468.173 65.7879L451.904 66.8264V108.082V144.883H468.173V65.7879Z" fill="#F2F2F2"/>
<path d="M451.904 43.6344L470.769 42.7691L470.596 59.3842H452.077L451.904 43.6344Z" fill="#F2F2F2"/>
</svg>
