<svg width="386" height="125" viewBox="0 0 386 125" fill="none" xmlns="http://www.w3.org/2000/svg">
<path d="M34.6724 105.748V20.4228L49.3838 19.2113V29.2496H50.2491C52.6722 23.0189 57.6913 17.4805 67.2104 17.4805C76.3834 17.4805 82.7871 22.3266 82.7871 32.7111V42.4032L67.2104 43.9609L69.1731 34.788C69.1731 30.115 66.9999 28 62.6731 28C57.1347 28 51.2876 35.8264 51.2876 42.7494V105.748H34.6724Z" fill="#F2F2F2"/>
<path d="M116.723 122.883C104.089 122.883 97.512 117.171 97.512 98.3063V47.9416H86.4352V34.6149H98.0312V0L113.781 10.9037V34.6149H131.261V47.9416H113.781V96.5755C113.781 105.229 116.55 107.306 122.262 107.306C125.723 107.306 129.877 105.922 132.473 104.364V120.114C127.973 121.844 122.954 122.883 116.723 122.883Z" fill="#F2F2F2"/>
<path d="M156.891 107.306C147.372 107.306 139.93 102.46 139.93 87.4026V20.0766L156.199 19.0382C152.21 42.9145 151.134 56.6016 151.173 81.5181C151.173 90.3449 159.661 95.8832 163.814 95.8832C170.224 96.5272 177.173 75 177.173 75C177.173 75 177.942 61.7859 176.173 47.7685C174.404 33.7512 174.026 20.0766 174.026 20.0766L190.295 19.0382V105.575H174.026V97.4409H173.333C169.526 103.672 165.891 107.306 156.891 107.306Z" fill="#F2F2F2"/>
<path d="M234.815 44.3071C234.815 34.4418 232.565 30.8072 226.508 30.8072C220.277 30.8072 217.335 34.0957 217.335 42.7494V47.7685L202.97 46.557V42.4032C202.97 21.2882 214.566 17.3074 227.373 17.3074C243.988 17.3074 251.084 24.5766 251.084 43.4417V105.575H234.815V97.9601H234.296C231.527 104.191 226.854 107.306 218.893 107.306C207.989 107.306 200.027 101.249 200.027 81.5181C200.027 60.7491 208.681 54.5184 220.969 54.5184C227.027 54.5184 231.527 56.5953 234.815 59.7107V44.3071ZM207.673 79.095C207.673 91.0372 219.585 96.4025 225.123 96.4025C231.008 96.4025 234.815 92.5948 234.815 85.3257V67.499C232.912 64.5568 229.969 62.6529 225.296 62.6529C218.2 62.6529 207.673 67.6721 207.673 79.095Z" fill="#F2F2F2"/>
<path d="M257.251 121.152L256.673 4L274.385 9.53674e-07V105.748H296.019L294.289 121.152H257.251Z" fill="#04588C"/>
<path d="M363.826 124.094C354.307 124.094 350.846 119.768 348.25 113.71H347.557V122.364H331.289V1.21152L347.557 0V43.4417H348.25C350.846 38.4225 354.307 34.0957 363.826 34.0957C376.634 34.0957 385.288 44.9994 385.288 79.095C385.288 113.191 376.634 124.094 363.826 124.094ZM347.557 93.9794C347.557 103.672 351.365 110.941 356.73 110.941C363.307 110.941 374.173 102.114 374.173 79.095C374.173 56.0761 363.307 47.2493 356.73 47.2493C351.365 47.2493 347.557 52.7877 347.557 63.1722V93.9794Z" fill="#04588C"/>
<path d="M0 13.4998L18.8651 12.6344L18.692 29.2496H0.173065L0 13.4998Z" fill="#F2F2F2"/>
<path d="M0.173065 113.71V35.8264L16.4421 34.788V113.71H0.173065Z" fill="#F2F2F2"/>
<path d="M320.173 34.7879L303.904 35.8264V77.0816V113.883H320.173V34.7879Z" fill="#04588C"/>
<path d="M303.904 12.6344L322.769 11.7691L322.596 28.3842H304.077L303.904 12.6344Z" fill="#04588C"/>
</svg>
